<?xml version="1.0" encoding="UTF-8" standalone="no" ?>
<!DOCTYPE svg PUBLIC "-//W3C//DTD SVG 1.1//EN" "http://www.w3.org/Graphics/SVG/1.1/DTD/svg11.dtd">
<svg xmlns="http://www.w3.org/2000/svg" xmlns:xlink="http://www.w3.org/1999/xlink" version="1.1" width="1080" height="1080" viewBox="0 0 1080 1080" xml:space="preserve">
<desc>Created with Fabric.js 5.2.4</desc>
<defs>
</defs>
<g transform="matrix(1 0 0 1 540 540)" id="6240e09b-9f3b-4b17-b891-f988cb390a92"  >
<rect style="stroke: none; stroke-width: 1; stroke-dasharray: none; stroke-linecap: butt; stroke-dashoffset: 0; stroke-linejoin: miter; stroke-miterlimit: 4; fill: rgb(255,255,255); fill-rule: nonzero; opacity: 1; visibility: hidden;" vector-effect="non-scaling-stroke"  x="-540" y="-540" rx="0" ry="0" width="1080" height="1080" />
</g>
<g transform="matrix(1 0 0 1 540 540)" id="183edc99-8421-4b61-9bf6-3392a4cf3e64"  >
</g>
<g transform="matrix(4.1 0 0 4.1 540 540)"  >
<g style="" vector-effect="non-scaling-stroke"   >
		<g transform="matrix(1 0 0 1 -67.05 91)"  >
<path style="stroke: none; stroke-width: 1; stroke-dasharray: none; stroke-linecap: butt; stroke-dashoffset: 0; stroke-linejoin: miter; stroke-miterlimit: 4; fill: rgb(237,244,252); fill-rule: nonzero; opacity: 1;" vector-effect="non-scaling-stroke"  transform=" translate(-18.95, -217.5)" d="M 6.416 210.5 L 34.455 210.5 L 34.455 224.5 L 6.416 224.5 C 5.63061264848168 224.50026537841487 4.877316512531688 224.18838899510808 4.321963758711801 223.63303624128818 C 3.7666110048919155 223.0776834874683 3.4547346215851378 222.3243873515183 3.4550000000000005 221.539 L 3.4550000000000005 213.46099999999998 C 3.454734621585137 212.67561264848166 3.7666110048919137 211.92231651253167 4.321963758711799 211.3669637587118 C 4.877316512531686 210.8116110048919 5.630612648481678 210.4997346215851 6.415999999999999 210.49999999999997" stroke-linecap="round" />
</g>
		<g transform="matrix(1 0 0 1 -0.54 -21.34)"  >
<path style="stroke: none; stroke-width: 1; stroke-dasharray: none; stroke-linecap: butt; stroke-dashoffset: 0; stroke-linejoin: miter; stroke-miterlimit: 4; fill: rgb(249,208,180); fill-rule: nonzero; opacity: 1;" vector-effect="non-scaling-stroke"  transform=" translate(-85.46, -105.16)" d="M 48.244 74.176 L 48.244 98.924 C 48.244 119.39200000000001 64.991 136.139 85.459 136.139 C 105.927 136.139 122.674 119.39200000000001 122.674 98.924 L 122.674 74.681 C 100.775 84.907 69.84100000000001 84.746 48.244 74.176" stroke-linecap="round" />
</g>
		<g transform="matrix(1 0 0 1 -0.54 -40.21)"  >
<path style="stroke: none; stroke-width: 1; stroke-dasharray: none; stroke-linecap: butt; stroke-dashoffset: 0; stroke-linejoin: miter; stroke-miterlimit: 4; fill: rgb(249,208,180); fill-rule: nonzero; opacity: 1;" vector-effect="non-scaling-stroke"  transform=" translate(-85.46, -86.29)" d="M 129.222 71.141 C 127.11343152251756 72.45319610001516 124.9266946256307 73.63539656045795 122.67399999999999 74.68100000000001 L 122.674 98.924 C 122.674 99.76400000000001 122.63600000000001 100.59400000000001 122.58000000000001 101.42 C 123.39000000000001 101.55 124.21500000000002 101.637 125.06200000000001 101.637 C 133.643 101.637 140.59900000000002 94.68 140.59900000000002 86.099 C 140.59900000000002 78.96000000000001 135.78000000000003 72.962 129.222 71.141 M 48.244000000000014 74.176 C 46.26164267510954 73.20501438949499 44.33437921135491 72.12537294799446 42.47100000000002 70.94200000000001 C 35.52000000000002 72.489 30.319000000000017 78.682 30.319000000000017 86.099 C 30.319000000000017 94.679 37.27500000000002 101.637 45.85700000000001 101.637 C 46.704000000000015 101.637 47.52900000000001 101.551 48.33900000000001 101.42 C 48.280345637998735 100.58958750066472 48.2489953869783 99.75747179538826 48.24500000000001 98.925 z" stroke-linecap="round" />
</g>
		<g transform="matrix(1 0 0 1 0 28.97)"  >
<path style="stroke: none; stroke-width: 1; stroke-dasharray: none; stroke-linecap: butt; stroke-dashoffset: 0; stroke-linejoin: miter; stroke-miterlimit: 4; fill: rgb(237,244,252); fill-rule: nonzero; opacity: 1;" vector-effect="non-scaling-stroke"  transform=" translate(-86, -155.47)" d="M 116.648 151.265 L 108.514 143.838 C 107.76131336208984 143.1511548981486 106.59763594547888 143.1920324553568 105.895 143.93 L 90.208 160.421 C 89.43784305709195 161.23053983013628 89.4282179616236 162.49886491026098 90.18599999999999 163.32 L 90.788 163.97199999999998 C 95.83416038218762 164.44046793831407 100.78206583715473 165.65991766147968 105.46799999999999 167.58999999999997 L 116.82799999999999 153.83799999999997 C 117.46499999999999 153.07099999999997 117.38499999999999 151.93799999999996 116.64799999999998 151.26499999999996 M 81.21099999999998 163.97299999999996 L 81.81299999999999 163.32099999999997 C 82.57078203837638 162.49986491026095 82.56115694290803 161.23153983013626 81.79099999999998 160.42199999999997 L 66.10399999999998 143.93099999999998 C 65.4020743580996 143.191454235926 64.23708882760987 143.15053072740935 63.484999999999985 143.83899999999997 L 55.350999999999985 151.26599999999996 C 54.61292294147841 151.93837972898913 54.53324065733724 153.07198128514113 55.16999999999999 153.84099999999995 L 66.52999999999999 167.59299999999996 C 71.2161433081435 165.66213537394646 76.16439639726117 164.44200893960235 81.21099999999996 163.97299999999996" stroke-linecap="round" />
</g>
		<g transform="matrix(1 0 0 1 0 21.3)"  >
<path style="stroke: none; stroke-width: 1; stroke-dasharray: none; stroke-linecap: butt; stroke-dashoffset: 0; stroke-linejoin: miter; stroke-miterlimit: 4; fill: rgb(249,208,180); fill-rule: nonzero; opacity: 1;" vector-effect="non-scaling-stroke"  transform=" translate(-86, -147.81)" d="M 81.813 163.321 L 81.211 163.97299999999998 C 82.80293252292437 163.82240826704276 84.40096405201423 163.7453263536538 86 163.742 C 87.616 163.742 89.211 163.825 90.789 163.97299999999998 L 90.187 163.321 C 89.4292179616236 162.49986491026098 89.43884305709196 161.23153983013628 90.209 160.422 L 105.093 144.774 C 103.81994400704988 142.73362912919353 103.14502327748582 140.37695007247135 103.14500000000001 137.972 L 103.14500000000001 131.637 C 97.71952296991726 134.5945003467226 91.63820641777538 136.14216549436426 85.459 136.138 C 79.69192869782822 136.14002809863211 74.00484130505045 134.78881394755356 68.85499999999999 132.193 L 68.855 137.971 C 68.855 140.424 68.156 142.77100000000002 66.90700000000001 144.773 L 81.79100000000001 160.421 C 82.56178070598956 161.230675476626 82.5714079689936 162.4997237817017 81.81300000000002 163.321" stroke-linecap="round" />
</g>
		<g transform="matrix(1 0 0 1 67.05 91)"  >
<path style="stroke: none; stroke-width: 1; stroke-dasharray: none; stroke-linecap: butt; stroke-dashoffset: 0; stroke-linejoin: miter; stroke-miterlimit: 4; fill: rgb(237,244,252); fill-rule: nonzero; opacity: 1;" vector-effect="non-scaling-stroke"  transform=" translate(-153.05, -217.5)" d="M 165.584 210.5 L 137.54500000000002 210.5 L 137.54500000000002 224.5 L 165.584 224.5 C 166.36938735151833 224.50026537841487 167.12268348746832 224.18838899510808 167.6780362412882 223.6330362412882 C 168.2333889951081 223.0776834874683 168.54526537841488 222.3243873515183 168.54500000000002 221.539 L 168.54500000000002 213.46099999999998 C 168.54526537841488 212.67561264848166 168.2333889951081 211.92231651253167 167.67803624128823 211.3669637587118 C 167.12268348746832 210.8116110048919 166.36938735151833 210.4997346215851 165.584 210.49999999999997" stroke-linecap="round" />
</g>
		<g transform="matrix(1 0 0 1 65.09 111)"  >
<path style="stroke: none; stroke-width: 1; stroke-dasharray: none; stroke-linecap: butt; stroke-dashoffset: 0; stroke-linejoin: miter; stroke-miterlimit: 4; fill: rgb(249,208,180); fill-rule: nonzero; opacity: 1;" vector-effect="non-scaling-stroke"  transform=" translate(-151.09, -237.5)" d="M 160.549 250.5 C 161.67144335061403 250.50068448274575 162.74459131792693 250.03892015206725 163.51583180343098 249.2234033482099 C 164.28707228893506 248.40788654435255 164.68827521327327 247.31065864171006 164.625 246.19 L 163.367 224.5 L 137.54399999999998 224.5 L 137.54399999999998 250.5 z" stroke-linecap="round" />
</g>
		<g transform="matrix(1 0 0 1 0 75.21)"  >
<path style="stroke: none; stroke-width: 1; stroke-dasharray: none; stroke-linecap: butt; stroke-dashoffset: 0; stroke-linejoin: miter; stroke-miterlimit: 4; fill: rgb(245,200,76); fill-rule: nonzero; opacity: 1;" vector-effect="non-scaling-stroke"  transform=" translate(-86, -201.71)" d="M 160.511 175.239 C 160.1523616740435 168.82259662206795 155.66465856686295 163.384122690501 149.433 161.814 L 120.53099999999999 154.54 L 117.23499999999999 152.915 C 117.1880988753194 153.2550271674695 117.0475243967867 153.57530153358462 116.82899999999998 153.84 L 105.46899999999998 167.592 C 99.29398045394416 165.04652170358673 92.67909486573089 163.73876605979234 86 163.743 C 79.32090513426908 163.73876605979234 72.70601954605583 165.0465217035867 66.53099999999999 167.59199999999998 L 55.17100000000001 153.83999999999997 C 54.95292582183154 153.57502458113746 54.812409742895454 153.25488326829043 54.76500000000001 152.91499999999996 L 51.46900000000001 154.53999999999996 L 22.567000000000007 161.81399999999996 C 16.334436324921956 163.3826911168718 11.84606096799029 168.82197972192756 11.489000000000006 175.23899999999998 L 9.444 210.5 L 34.455 210.5 L 34.455 250.5 L 137.54500000000002 250.5 L 137.54500000000002 210.5 L 162.556 210.5 z" stroke-linecap="round" />
</g>
		<g transform="matrix(1 0 0 1 -65.09 111)"  >
<path style="stroke: none; stroke-width: 1; stroke-dasharray: none; stroke-linecap: butt; stroke-dashoffset: 0; stroke-linejoin: miter; stroke-miterlimit: 4; fill: rgb(249,208,180); fill-rule: nonzero; opacity: 1;" vector-effect="non-scaling-stroke"  transform=" translate(-20.91, -237.5)" d="M 34.455 224.5 L 8.633 224.5 L 7.374999999999999 246.19 C 7.312611643893065 247.31042998432127 7.714111996826288 248.4071491138794 8.485161501143722 249.22246397246826 C 9.256211005461155 250.0377788310571 10.32883440557632 250.49981175636614 11.450999999999997 250.5 L 34.455 250.5 z" stroke-linecap="round" />
</g>
		<g transform="matrix(1 0 0 1 0 80.62)"  >
<path style="stroke: none; stroke-width: 1; stroke-dasharray: none; stroke-linecap: butt; stroke-dashoffset: 0; stroke-linejoin: miter; stroke-miterlimit: 4; fill: rgb(129,129,130); fill-rule: nonzero; opacity: 1;" vector-effect="non-scaling-stroke"  transform=" translate(-86, -207.12)" d="M 86 163.743 C 57.69 163.743 34.658 186.775 34.658 215.08499999999998 C 34.658 228.808 40.08 241.27999999999997 48.882000000000005 250.50099999999998 L 73.947 250.50099999999998 C 59.212 245.47199999999998 48.581 231.50099999999998 48.581 215.08499999999998 C 48.581 194.45199999999997 65.367 177.66699999999997 86 177.66699999999997 C 106.633 177.66699999999997 123.419 194.45299999999997 123.419 215.08499999999998 C 123.419 231.50099999999998 112.788 245.47099999999998 98.053 250.50099999999998 L 123.118 250.50099999999998 C 131.91899999999998 241.28099999999998 137.34199999999998 228.80799999999996 137.34199999999998 215.08499999999998 C 137.34199999999998 186.77499999999998 114.30999999999999 163.743 85.99999999999999 163.743" stroke-linecap="round" />
</g>
		<g transform="matrix(1 0 0 1 0 98.5)"  >
<path style="stroke: none; stroke-width: 1; stroke-dasharray: none; stroke-linecap: butt; stroke-dashoffset: 0; stroke-linejoin: miter; stroke-miterlimit: 4; fill: rgb(91,93,96); fill-rule: nonzero; opacity: 1;" vector-effect="non-scaling-stroke"  transform=" translate(-86, -225)" d="M 101.664 218.275 C 101.664 219.74800000000002 101.44500000000001 221.169 101.063 222.52100000000002 C 108.92949699110751 220.8734389299348 116.47147771522286 217.94333685054704 123.38700000000001 213.848 C 123.22821907323062 208.88544666436755 122.07761272095544 204.00489005072754 120.003 199.49400000000003 C 113.51547669497695 204.00515375249682 106.19437572057134 207.17889997728557 98.46700000000001 208.83000000000004 C 100.464 211.46000000000004 101.664 214.72700000000003 101.664 218.27500000000003 M 70.336 218.27500000000003 C 70.336 214.72600000000003 71.536 211.46000000000004 73.533 208.83100000000005 C 65.80562427942866 207.1798999772856 58.48452330502305 204.00615375249683 51.997 199.495 C 49.92238727904455 204.00589005072754 48.77178092676937 208.88644666436758 48.61299999999999 213.84900000000005 C 55.52852228477716 217.94433685054707 63.070503008892494 220.87443892993483 70.937 222.52200000000005 C 70.5420708903627 221.14075920245932 70.33982628225033 219.71158640603136 70.336 218.27500000000003 M 79.038 232.28600000000003 L 79.038 250.5 L 92.961 250.5 L 92.961 232.286 C 90.80051244482894 233.37105943935035 88.4166552091996 233.93706288814315 85.999 233.939 C 83.496 233.939 81.139 233.334 79.038 232.286" stroke-linecap="round" />
</g>
		<g transform="matrix(1 0 0 1 0 91.78)"  >
<path style="stroke: none; stroke-width: 1; stroke-dasharray: none; stroke-linecap: butt; stroke-dashoffset: 0; stroke-linejoin: miter; stroke-miterlimit: 4; fill: rgb(129,129,130); fill-rule: nonzero; opacity: 1;" vector-effect="non-scaling-stroke"  transform=" translate(-86, -218.28)" d="M 86 202.612 C 77.363 202.612 70.336 209.63899999999998 70.336 218.27599999999998 C 70.336 226.91299999999998 77.362 233.94 86 233.94 C 94.638 233.94 101.664 226.913 101.664 218.276 C 101.664 209.639 94.637 202.612 86 202.612" stroke-linecap="round" />
</g>
		<g transform="matrix(1 0 0 1 0 47.94)"  >
<path style="stroke: none; stroke-width: 1; stroke-dasharray: none; stroke-linecap: butt; stroke-dashoffset: 0; stroke-linejoin: miter; stroke-miterlimit: 4; fill: rgb(252,101,126); fill-rule: nonzero; opacity: 1;" vector-effect="non-scaling-stroke"  transform=" translate(-86, -174.44)" d="M 86 163.743 C 74.718 163.743 64.281 167.41 55.799 173.601 C 58.316 178.05 60.921 181.896 63.591 185.137 C 70.05138385234167 180.28040559158188 77.91673513455278 177.65803682018776 85.99899999999998 177.666 C 94.0816069331318 177.65781967156335 101.9473427666933 180.28019962660545 108.40799999999999 185.137 C 111.079 181.896 113.68399999999998 178.05 116.19999999999999 173.601 C 107.719 167.409 97.28199999999998 163.743 85.99999999999999 163.743" stroke-linecap="round" />
</g>
		<g transform="matrix(1 0 0 1 0 -57.61)"  >
<path style="stroke: none; stroke-width: 1; stroke-dasharray: none; stroke-linecap: butt; stroke-dashoffset: 0; stroke-linejoin: miter; stroke-miterlimit: 4; fill: rgb(91,93,96); fill-rule: nonzero; opacity: 1;" vector-effect="non-scaling-stroke"  transform=" translate(-86, -68.89)" d="M 38.335 62.302 L 38.335 65.11 C 38.335 67.027 39.285000000000004 68.816 40.865 69.9 C 64.855 86.351 107.148 86.34800000000001 131.135 69.9 C 132.71662340522647 68.81823182311402 133.66315519873527 67.02618151050252 133.665 65.11 L 133.665 62.302 C 106.44 53.768 68.63999999999999 52.802 38.334999999999994 62.302" stroke-linecap="round" />
</g>
		<g transform="matrix(1 0 0 1 0 -76.96)"  >
<path style="stroke: none; stroke-width: 1; stroke-dasharray: none; stroke-linecap: butt; stroke-dashoffset: 0; stroke-linejoin: miter; stroke-miterlimit: 4; fill: rgb(252,221,134); fill-rule: nonzero; opacity: 1;" vector-effect="non-scaling-stroke"  transform=" translate(-86, -49.54)" d="M 134.292 46.773 C 126.099 43.001000000000005 117.095 40.213 107.682 38.513000000000005 C 100.924 37.291000000000004 94.056 36.78900000000001 87.18900000000001 36.78300000000001 L 84.971 36.78000000000001 C 77.22 36.77300000000001 69.467 37.403000000000006 61.869 38.93800000000001 C 53.57 40.61500000000001 45.434 43.20200000000001 37.712 46.76900000000001 C 36.139136567319085 47.488968932777766 35.28893359474459 49.21527786775458 35.67700000000001 50.90100000000001 L 38.336000000000006 62.30100000000001 C 68.641 52.80200000000001 106.441 53.76700000000001 133.666 62.30100000000001 L 136.325 50.90400000000001 C 136.7143505440784 49.21919836832902 135.8646322004406 47.49301206275887 134.292 46.77400000000001" stroke-linecap="round" />
</g>
		<g transform="matrix(1 0 0 1 0 -99.28)"  >
<path style="stroke: none; stroke-width: 1; stroke-dasharray: none; stroke-linecap: butt; stroke-dashoffset: 0; stroke-linejoin: miter; stroke-miterlimit: 4; fill: rgb(245,200,76); fill-rule: nonzero; opacity: 1;" vector-effect="non-scaling-stroke"  transform=" translate(-86, -27.22)" d="M 147.007 36.353 C 141.364 26.479 119.853 2.5 86 2.5 C 52.147000000000006 2.5 30.636 26.479 24.993 36.353 C 20.808999999999997 43.676 30.584 49.443 35.917 51.937 L 35.676 50.902 C 35.28793359474459 49.21627786775457 36.13813656731908 47.48996893277776 37.711 46.77 C 45.433 43.203 53.569 40.615 61.867999999999995 38.939 C 69.466 37.404 77.219 36.774 84.97 36.781 L 87.188 36.783 C 94.055 36.789 100.924 37.292 107.681 38.513 C 117.094 40.214 126.098 43.001999999999995 134.291 46.774 C 135.86368213307338 47.4934342428404 136.71302647185234 49.220127876450555 136.323 50.905 L 136.082 51.937 C 141.417 49.443 151.191 43.676 147.007 36.352999999999994" stroke-linecap="round" />
</g>
		<g transform="matrix(1 0 0 1 0 35.74)"  >
<path style="stroke: none; stroke-width: 1; stroke-dasharray: none; stroke-linecap: butt; stroke-dashoffset: 0; stroke-linejoin: miter; stroke-miterlimit: 4; fill: rgb(0,0,0); fill-rule: nonzero; opacity: 1;" vector-effect="non-scaling-stroke"  transform=" translate(-86, -162.24)" d="M 85.459 138.638 C 63.56 138.638 45.744 120.822 45.744 98.923 L 45.744 74.938 C 45.744 73.55728812542301 46.86328812542302 72.438 48.244 72.438 C 49.62471187457698 72.438 50.744 73.55728812542301 50.744 74.938 L 50.744 98.923 C 50.744 118.065 66.31700000000001 133.638 85.459 133.638 C 104.601 133.638 120.174 118.065 120.174 98.923 L 120.174 75.417 C 120.174 74.03628812542301 121.29328812542302 72.917 122.674 72.917 C 124.054711874577 72.917 125.174 74.03628812542301 125.174 75.417 L 125.174 98.923 C 125.174 120.822 107.357 138.638 85.459 138.638 M 137.54500000000002 252.04000000000002 C 136.16428812542304 252.04000000000002 135.04500000000002 250.920711874577 135.04500000000002 249.54000000000002 L 135.04500000000002 192.89600000000002 C 135.04500000000002 191.51528812542304 136.16428812542304 190.39600000000002 137.54500000000002 190.39600000000002 C 138.925711874577 190.39600000000002 140.04500000000002 191.51528812542304 140.04500000000002 192.89600000000002 L 140.04500000000002 249.54000000000002 C 140.04500000000002 250.920711874577 138.925711874577 252.04000000000002 137.54500000000002 252.04000000000002 M 34.45500000000001 252.04000000000002 C 33.07428812542303 252.04000000000002 31.955000000000013 250.920711874577 31.955000000000013 249.54000000000002 L 31.955000000000013 192.89600000000002 C 31.955000000000013 191.51528812542304 33.07428812542303 190.39600000000002 34.45500000000001 190.39600000000002 C 35.835711874576994 190.39600000000002 36.95500000000001 191.51528812542304 36.95500000000001 192.89600000000002 L 36.95500000000001 249.54000000000002 C 36.95500000000001 250.920711874577 35.835711874576994 252.04000000000002 34.45500000000001 252.04000000000002" stroke-linecap="round" />
</g>
		<g transform="matrix(1 0 0 1 -0.54 -34.36)"  >
<path style="stroke: none; stroke-width: 1; stroke-dasharray: none; stroke-linecap: butt; stroke-dashoffset: 0; stroke-linejoin: miter; stroke-miterlimit: 4; fill: rgb(0,0,0); fill-rule: nonzero; opacity: 1;" vector-effect="non-scaling-stroke"  transform=" translate(-85.46, -92.14)" d="M 125.062 104.136 C 124.401 104.136 123.729 104.09299999999999 123.00699999999999 104.005 C 122.11855745330001 103.89877119640396 121.35462888418529 103.3258253209552 121.00388455915801 102.50266486517435 C 120.65314023413073 101.6795044093935 120.76906677630424 100.73165691547736 121.30785832845986 100.0172911962369 C 121.84664988061547 99.30292547699645 122.72614362890137 98.93097846245081 123.61399999999999 99.042 C 124.133 99.105 124.60499999999999 99.136 125.06099999999999 99.136 C 132.25 99.136 138.099 93.28699999999999 138.099 86.098 C 138.10378768214346 80.46998390188966 134.4878618635813 75.47750418074764 129.13899999999998 73.727 C 128.28558712181322 73.45161757814968 127.64503799440297 72.74024497922055 127.46033416495169 71.86272944414145 C 127.27563033550041 70.98521390906234 127.57506788884275 70.07598824357461 128.2450602211068 69.47995192452473 C 128.91505255337083 68.88391560547483 129.85295880470744 68.69237964844085 130.70299999999997 68.97800000000001 C 138.10423976437133 71.401106924218 143.1068795043261 78.31020601650785 143.099 86.098 C 143.1 96.04400000000001 135.00799999999998 104.13600000000001 125.06199999999998 104.13600000000001 M 45.85599999999998 104.13600000000001 C 35.90999999999998 104.13600000000001 27.81799999999998 96.04400000000001 27.81799999999998 86.09800000000001 C 27.81799999999998 78.17800000000001 33.12099999999998 71.07100000000001 40.713999999999984 68.81500000000001 C 42.03754350160204 68.42211545138424 43.42899781638962 69.17649142320441 43.82199999999998 70.50000000000001 C 44.21488454861576 71.82354350160207 43.46050857679559 73.21499781638965 42.13699999999998 73.60800000000002 C 36.64899999999998 75.23800000000001 32.81699999999998 80.37400000000002 32.81699999999998 86.09800000000001 C 32.81699999999998 93.287 38.66599999999998 99.13600000000001 45.854999999999976 99.13600000000001 C 46.2612780763221 99.13580682606865 46.66723346116083 99.113105373627 47.07099999999998 99.06800000000001 C 48.44425603045424 98.92302525316943 49.675025253169395 99.91874396954574 49.81999999999998 101.29200000000002 C 49.964974746830556 102.66525603045427 48.96925603045425 103.89602525316943 47.595999999999975 104.04100000000001 C 46.98799999999998 104.10400000000001 46.418999999999976 104.13600000000001 45.85599999999997 104.13600000000001 M 86 115.573 C 81.224 115.573 76.738 113.62299999999999 74.001 110.35799999999999 C 73.11403069177175 109.29982241932419 73.2528224193242 107.72296930822824 74.311 106.83599999999998 C 75.3691775806758 105.94903069177174 76.94603069177174 106.08782241932418 77.833 107.14599999999999 C 79.631 109.29199999999999 82.685 110.573 86 110.573 C 89.315 110.573 92.368 109.29199999999999 94.167 107.14599999999999 C 95.06350651781173 106.12390559652385 96.61230182369196 106.00518837562072 97.65410970963953 106.87870840107728 C 98.69591759558708 107.75222842653383 98.84910017578447 109.29799547728231 97.999 110.35899999999998 C 95.261 113.62399999999998 90.77499999999999 115.57299999999998 86 115.57299999999998 M 102.789 92.81599999999997 C 105.55042374915396 92.81599999999997 107.789 90.57742374915394 107.789 87.81599999999997 C 107.789 85.05457625084601 105.55042374915396 82.81599999999997 102.789 82.81599999999997 C 100.02757625084604 82.81599999999997 97.789 85.05457625084601 97.789 87.81599999999997 C 97.789 90.57742374915394 100.02757625084604 92.81599999999997 102.789 92.81599999999997 M 69.211 92.81599999999997 C 71.97242374915396 92.81599999999997 74.211 90.57742374915394 74.211 87.81599999999997 C 74.211 85.05457625084601 71.97242374915396 82.81599999999997 69.211 82.81599999999997 C 66.44957625084604 82.81599999999997 64.211 85.05457625084601 64.211 87.81599999999997 C 64.211 90.57742374915394 66.44957625084604 92.81599999999997 69.211 92.81599999999997" stroke-linecap="round" />
</g>
		<g transform="matrix(1 0 0 1 0 -54.17)"  >
<path style="stroke: none; stroke-width: 1; stroke-dasharray: none; stroke-linecap: butt; stroke-dashoffset: 0; stroke-linejoin: miter; stroke-miterlimit: 4; fill: rgb(0,0,0); fill-rule: nonzero; opacity: 1;" vector-effect="non-scaling-stroke"  transform=" translate(-86, -72.33)" d="M 86 84.714 C 68.923 84.715 51.851 80.464 39.451 71.961 C 37.18955663582114 70.4129824481254 35.836745861863626 67.84952574924353 35.835 65.109 L 35.835 62.562999999999995 C 35.835 61.182288125423014 36.95428812542302 60.062999999999995 38.335 60.062999999999995 C 39.71571187457698 60.062999999999995 40.835 61.182288125423014 40.835 62.562999999999995 L 40.835 65.109 C 40.83694342515057 66.20083745634098 41.3771963635912 67.22148151178835 42.279 67.83699999999999 C 65.57000000000001 83.80899999999998 106.43 83.80899999999998 129.721 67.83699999999999 C 130.6228036364088 67.22148151178835 131.1630565748494 66.20083745634098 131.165 65.109 L 131.165 62.45399999999999 C 131.165 61.07328812542301 132.28428812542302 59.95399999999999 133.665 59.95399999999999 C 135.04571187457697 59.95399999999999 136.165 61.07328812542301 136.165 62.45399999999999 L 136.165 65.109 C 136.16325413813635 67.84952574924353 134.81044336417884 70.4129824481254 132.54899999999998 71.961 C 120.151 80.462 103.073 84.713 86 84.714" stroke-linecap="round" />
</g>
		<g transform="matrix(1 0 0 1 0 -76.96)"  >
<path style="stroke: none; stroke-width: 1; stroke-dasharray: none; stroke-linecap: butt; stroke-dashoffset: 0; stroke-linejoin: miter; stroke-miterlimit: 4; fill: rgb(0,0,0); fill-rule: nonzero; opacity: 1;" vector-effect="non-scaling-stroke"  transform=" translate(-86, -49.54)" d="M 38.335 64.802 C 37.172964071460065 64.80217648738584 36.16401455260701 64.00164652006586 35.9 62.87 L 33.241 51.47 C 32.583 48.650999999999996 34.022999999999996 45.72 36.662 44.501 C 44.373999999999995 40.939 52.688 38.242999999999995 61.372 36.488 C 68.663 35.016 76.639 34.292 84.97200000000001 34.281 L 87.19000000000001 34.283 C 94.72600000000001 34.29 101.57400000000001 34.869 108.126 36.053000000000004 C 117.801 37.801 126.956 40.644000000000005 135.338 44.503 C 137.97799999999998 45.719 139.417 48.65 138.759 51.472 L 136.1 62.87 C 135.94129026404855 63.546716079175894 135.50833063483233 64.12696296644533 134.9048105820978 64.47177737746712 C 134.3012905293633 64.81659178848892 133.58156463482032 64.89491884282673 132.918 64.688 C 104.418 55.754000000000005 67.58600000000001 55.755 39.084 64.688 C 38.841574496382876 64.76382980386981 38.58900828815509 64.80227112261208 38.335 64.802 M 86 53.002 C 101.877 53.002 117.756 55.048 131.836 59.138000000000005 L 133.89000000000001 50.336000000000006 C 134.00765235861712 49.80725675893635 133.73903152141665 49.26834663213044 133.246 49.044000000000004 C 125.248 45.361000000000004 116.49700000000001 42.646 107.23700000000001 40.97200000000001 C 100.98 39.842000000000006 94.42200000000001 39.28900000000001 87.186 39.28200000000001 L 84.968 39.28000000000001 L 84.84 39.28000000000001 C 76.85000000000001 39.28000000000001 69.289 39.98900000000001 62.363 41.388000000000005 C 54.059 43.066 46.117999999999995 45.639 38.759 49.038000000000004 C 38.26426510278387 49.26198361835321 37.99365660860007 49.8015327577582 38.11 50.332 L 40.164 59.136 C 54.245000000000005 55.048 70.124 53.002 86 53.002" stroke-linecap="round" />
</g>
		<g transform="matrix(1 0 0 1 0 -41.74)"  >
<path style="stroke: none; stroke-width: 1; stroke-dasharray: none; stroke-linecap: butt; stroke-dashoffset: 0; stroke-linejoin: miter; stroke-miterlimit: 4; fill: rgb(0,0,0); fill-rule: nonzero; opacity: 1;" vector-effect="non-scaling-stroke"  transform=" translate(-86, -84.76)" d="M 35.582 54.28 C 35.221000000000004 54.28 34.855000000000004 54.202 34.508 54.036 C 29.661 51.724000000000004 23.540000000000003 47.870000000000005 21.902 42.635000000000005 C 21.12 40.136 21.439 37.536 22.823 35.114000000000004 C 28.404 25.347 50.632 0 86 0 C 121.368 0 143.597 25.347 149.178 35.113 C 150.56199999999998 37.535 150.88 40.135999999999996 150.09799999999998 42.634 C 148.45999999999998 47.868 142.34099999999998 51.722 137.49599999999998 54.033 C 136.89754425245434 54.31854092107743 136.21016480786867 54.35463366034193 135.5850961781518 54.1333372357797 C 134.9600275484349 53.91204081121747 134.44847920680255 53.451485189343515 134.16299999999998 52.853 C 133.87752688704367 52.25442125986108 133.8415801896482 51.56694311679554 134.06307056688078 50.94185638748461 C 134.28456094411337 50.31676965817369 134.7453379272307 49.805298315793905 135.344 49.52 C 140.84199999999998 46.896 144.481 43.842000000000006 145.326 41.14 C 145.697 39.954 145.542 38.827 144.83599999999998 37.593 C 139.655 28.528 118.986 5 86 5 C 53.013 5 32.345 28.528 27.164 37.594 C 26.458000000000002 38.829 26.303 39.956 26.674000000000003 41.142 C 27.520000000000003 43.845000000000006 31.160000000000004 46.899 36.660000000000004 49.523 C 37.715284660727335 50.02569676058801 38.28136925773554 51.19252964093237 38.0230308607184 52.33252570272324 C 37.76469246370125 53.472521764514106 36.750900325241474 54.28133338758823 35.582 54.28 M 106.00399999999999 169.44299999999998 C 105.03604276303487 169.44227672880353 104.15541317055069 168.88307173422427 103.74310517612449 168.00731842795213 C 103.33079718169829 167.13156512167996 103.46085084875831 166.096526596404 104.07699999999998 165.35 L 114.52099999999999 152.707 L 107.28299999999999 146.09799999999998 L 92.26399999999998 161.88699999999997 C 93.13990957940709 162.91909055130986 93.035677479288 164.46075226343746 92.02881456675618 165.36554813697373 C 91.02195165422437 166.27034401051 89.47795590708115 166.20982708610777 88.54499999999999 165.22899999999998 L 88.35099999999998 165.01899999999998 C 86.70406508423561 163.22790830123267 86.72328279133373 160.46798350230029 88.39499999999998 158.7 L 104.08299999999998 142.207 C 105.71199999999999 140.495 108.45299999999999 140.4 110.19899999999998 141.99099999999999 L 118.33299999999998 149.41799999999998 C 120.05532241974986 150.9891790721191 120.24102720591435 153.63569230433075 118.75499999999998 155.432 L 107.93199999999999 168.535 C 107.45698142521792 169.1101462366721 106.7499462605863 169.443127527899 106.00399999999999 169.44299999999998 M 66.05099999999999 169.51 C 65.33099999999999 169.51 64.61599999999999 169.2 64.12199999999999 168.602 L 53.24299999999999 155.43200000000002 C 51.75761634149222 153.63585136731152 51.94330054626041 150.99007145434683 53.664999999999985 149.419 L 61.798999999999985 141.99200000000002 C 63.542999999999985 140.39900000000003 66.28799999999998 140.496 67.91499999999999 142.20800000000003 L 83.60199999999999 158.699 C 85.27507812544718 160.4650639265007 85.29604745868632 163.22471555299302 83.64999999999999 165.01600000000002 L 83.35099999999998 165.34000000000003 C 82.4132204947873 166.35344251593955 80.8314425159395 166.41477950521272 79.818 165.47700000000003 C 78.80455748406048 164.53922049478734 78.7432204947873 162.95744251593956 79.68099999999998 161.94400000000005 L 79.73399999999998 161.88700000000006 L 64.71599999999998 146.09900000000005 L 57.47799999999998 152.70800000000006 L 67.97699999999998 165.41700000000006 C 68.5930347200876 166.16338720572807 68.72316467424174 167.198194205603 68.31110863302104 168.07386677918367 C 67.89905259180031 168.94953935276436 67.01877652668026 169.5088902096825 66.05099999999997 169.51000000000005" stroke-linecap="round" />
</g>
		<g transform="matrix(1 0 0 1 0 51.89)"  >
<path style="stroke: none; stroke-width: 1; stroke-dasharray: none; stroke-linecap: butt; stroke-dashoffset: 0; stroke-linejoin: miter; stroke-miterlimit: 4; fill: rgb(0,0,0); fill-rule: nonzero; opacity: 1;" vector-effect="non-scaling-stroke"  transform=" translate(-86, -178.39)" d="M 104.705 146.605 C 103.78773197694754 146.60573849635114 102.94372014518098 146.1040907182161 102.506 145.298 C 101.2866982473286 143.04852015015618 100.64709991407335 140.53068168189827 100.645 137.972 L 100.645 132.27 C 100.645 130.88928812542304 101.76428812542301 129.77 103.145 129.77 C 104.52571187457698 129.77 105.645 130.88928812542304 105.645 132.27 L 105.645 137.972 C 105.645 139.691 106.08 141.4 106.901 142.911 C 107.32206529745626 143.68557796611134 107.30401931916806 144.6246732355409 106.85350675324072 145.3825026611036 C 106.40299418731337 146.14033208666623 105.5866274643235 146.60484361073446 104.705 146.605 M 67.256 146.67499999999998 C 66.37206510682083 146.67417758229013 65.55427072142791 146.20663518731098 65.10511982167378 145.44531722417034 C 64.65596892191964 144.6839992610297 64.64223566626744 143.7420889969534 65.069 142.968 C 65.9104579548413 141.43710287100885 66.35273114077451 139.71890937417967 66.355 137.97199999999998 L 66.355 133.188 C 66.355 131.807288125423 67.47428812542302 130.688 68.855 130.688 C 70.23571187457699 130.688 71.355 131.807288125423 71.355 133.188 L 71.355 137.97199999999998 C 71.355 140.55599999999998 70.696 143.11799999999997 69.44800000000001 145.38199999999998 C 69.00779067332788 146.18047844217259 68.16778458190142 146.67597473606602 67.256 146.67499999999998 M 86 204.756 C 84.61928812542301 204.756 83.5 203.63671187457697 83.5 202.256 L 83.5 178.355 C 83.5 176.97428812542302 84.61928812542301 175.855 86 175.855 C 87.38071187457699 175.855 88.5 176.97428812542302 88.5 178.355 L 88.5 202.256 C 88.5 203.63671187457697 87.38071187457699 204.756 86 204.756 M 165.584 227 L 137.54500000000002 227 C 136.16428812542304 227 135.04500000000002 225.88071187457697 135.04500000000002 224.5 L 135.04500000000002 210.5 C 135.04500000000002 209.11928812542303 136.16428812542304 208 137.54500000000002 208 L 165.584 208 C 168.59865625338608 208.0033067557288 171.04169324427122 210.44634374661393 171.04500000000002 213.461 L 171.04500000000002 221.53900000000002 C 171.04169324427122 224.5536562533861 168.59865625338608 226.99669324427123 165.584 227.00000000000003 M 140.04500000000002 222.00000000000003 L 165.584 222.00000000000003 C 165.70634623297073 222.00026626043066 165.8237581528174 221.9517822645287 165.91027020867304 221.86527020867305 C 165.9967822645287 221.7787581528174 166.04526626043065 221.66134623297074 166.04500000000002 221.53900000000002 L 166.04500000000002 213.461 C 166.04526626043065 213.33865376702929 165.9967822645287 213.22124184718263 165.91027020867304 213.13472979132698 C 165.8237581528174 213.04821773547133 165.70634623297073 212.99973373956936 165.584 213 L 140.04500000000002 213 z M 34.45500000000001 227.00000000000003 L 6.416 227.00000000000003 C 3.4013437466139136 226.99669324427123 0.9583067557287954 224.5536562533861 0.9549999999999992 221.53900000000002 L 0.9550000000000001 213.461 C 0.9583067557287959 210.44634374661393 3.401343746613911 208.0033067557288 6.415999999999998 208 L 34.455 208 C 35.83571187457698 208 36.955 209.11928812542303 36.955 210.5 L 36.955 224.5 C 36.955 225.88071187457697 35.83571187457698 227 34.455 227 M 6.416 213 C 6.293653767029284 212.99973373956936 6.176241847182627 213.04821773547133 6.089729791326979 213.13472979132698 C 6.003217735471332 213.22124184718263 5.954733739569354 213.33865376702929 5.955 213.461 L 5.955 221.53900000000002 C 5.955 221.793 6.162 222.00000000000003 6.416 222.00000000000003 L 31.955000000000002 222.00000000000003 L 31.955000000000002 213.00000000000003 z" stroke-linecap="round" />
</g>
		<g transform="matrix(1 0 0 1 55.17 75.32)"  >
<path style="stroke: none; stroke-width: 1; stroke-dasharray: none; stroke-linecap: butt; stroke-dashoffset: 0; stroke-linejoin: miter; stroke-miterlimit: 4; fill: rgb(0,0,0); fill-rule: nonzero; opacity: 1;" vector-effect="non-scaling-stroke"  transform=" translate(-141.17, -201.82)" d="M 160.549 253 L 137.54500000000002 253 C 136.16428812542304 253 135.04500000000002 251.88071187457697 135.04500000000002 250.5 C 135.04500000000002 249.11928812542303 136.16428812542304 248 137.54500000000002 248 L 160.549 248 C 160.9843868834695 248.00159583937167 161.40088569934028 247.82232026210556 161.699 247.505 C 162.001 247.186 162.15300000000002 246.769 162.12900000000002 246.32999999999998 L 160.91500000000002 225.38899999999998 C 160.8767682956703 224.72700973077283 161.10309788169639 224.0769485773571 161.54419157908387 223.58184340682013 C 161.98528527647133 223.08673823628317 162.605005135526 222.7871520533838 163.26700000000002 222.749 C 164.62300000000002 222.664 165.82800000000003 223.721 165.90800000000002 225.1 L 167.122 246.046 C 167.22213569463457 247.85365487059025 166.57532281719708 249.62308037208786 165.33300000000003 250.94 C 164.08818378337253 252.25348816118432 162.35864511253752 252.99823098349205 160.54900000000004 253 M 162.48500000000004 211.825 C 161.16130289921358 211.82405144110027 160.06777411169026 210.79146912569635 159.99100000000004 209.47 L 158.01400000000004 175.38400000000001 C 157.7375630871155 170.0505484249511 154.00537068790788 165.5253869487578 148.82200000000003 164.239 L 119.92000000000003 156.965 C 119.74904451835333 156.92195584793745 119.5831214846541 156.8609498032238 119.42500000000003 156.78300000000002 L 116.56800000000003 155.37400000000002 C 115.35115029599743 154.75196375888132 114.85929232886275 153.26807867745583 115.46367516375535 152.04236513984458 C 116.06805799864797 150.81665160223332 117.54467871822864 150.303396845591 118.77900000000002 150.89000000000001 L 121.39800000000002 152.18200000000002 L 150.04400000000004 159.39100000000002 C 157.35111411997624 161.20503745366713 162.61376408055457 167.58240793196748 163.00800000000004 175.101 L 164.98500000000004 209.18200000000002 C 165.02323170432976 209.84399026922716 164.79690211830368 210.4940514226429 164.3558084209162 210.98915659317987 C 163.91471472352873 211.48426176371683 163.29499486447406 211.7838479466162 162.63300000000004 211.822 z" stroke-linecap="round" />
</g>
		<g transform="matrix(1 0 0 1 -12.49 75.35)"  >
<path style="stroke: none; stroke-width: 1; stroke-dasharray: none; stroke-linecap: butt; stroke-dashoffset: 0; stroke-linejoin: miter; stroke-miterlimit: 4; fill: rgb(0,0,0); fill-rule: nonzero; opacity: 1;" vector-effect="non-scaling-stroke"  transform=" translate(-73.51, -201.85)" d="M 137.545 253 L 34.455 253 C 33.07428812542302 253 31.955 251.88071187457697 31.955 250.5 C 31.955 249.11928812542303 33.07428812542302 248 34.455 248 L 137.54500000000002 248 C 138.925711874577 248 140.04500000000002 249.11928812542303 140.04500000000002 250.5 C 140.04500000000002 251.88071187457697 138.925711874577 253 137.54500000000002 253 M 9.476 212.501 Q 9.402000000000001 212.501 9.329 212.497 C 7.950856670684786 212.4170227351717 6.898375432231591 211.23516375196607 6.978000000000001 209.85700000000003 L 8.994 175.09500000000003 C 9.414 167.55000000000004 14.623999999999999 161.23600000000002 21.958 159.39000000000001 L 50.602 152.181 L 53.099999999999994 150.949 C 54.338498551495555 150.33844920906208 55.83744920906206 150.84750144850446 56.448 152.086 C 57.05855079093794 153.32449855149557 56.54949855149555 154.8234492090621 55.31099999999999 155.43400000000003 L 52.574999999999996 156.78300000000002 C 52.41687851534592 156.8609498032238 52.25095548164669 156.92195584793745 52.08 156.965 L 23.179 164.239 C 17.996928078606018 165.5244680521055 14.264700441507603 170.04715007943895 13.985999999999997 175.37900000000002 L 11.969 210.14700000000002 C 11.891740636018866 211.46768997636016 10.798947062801382 212.49955362311266 9.475999999999999 212.50100000000003" stroke-linecap="round" />
</g>
		<g transform="matrix(1 0 0 1 -20.61 87.58)"  >
<path style="stroke: none; stroke-width: 1; stroke-dasharray: none; stroke-linecap: butt; stroke-dashoffset: 0; stroke-linejoin: miter; stroke-miterlimit: 4; fill: rgb(0,0,0); fill-rule: nonzero; opacity: 1;" vector-effect="non-scaling-stroke"  transform=" translate(-65.39, -214.08)" d="M 34.455 253 L 11.451 253 C 9.64170244579728 252.9979569128508 7.912577048451894 252.25323637792889 6.668 250.94 C 5.426607317441354 249.62446517178833 4.779524664712179 247.85709808285372 4.878 246.051 L 6.095000000000001 225.065 C 6.195705807584785 223.70360121136412 7.369870945156901 222.6746935410578 8.732706559193911 222.7536074846476 C 10.095542173230921 222.83252142823738 11.143101882646082 223.99007635976977 11.086 225.35399999999998 L 9.869 246.33499999999998 C 9.845 246.76799999999997 9.998 247.18599999999998 10.299999999999999 247.50499999999997 C 10.598114300659734 247.82232026210553 11.014613116530494 248.00159583937165 11.45 247.99999999999997 L 34.454 247.99999999999997 C 35.83471187457698 247.99972385762504 36.95422385762508 249.11878812542298 36.954499999999996 250.49949999999998 C 36.95477614237492 251.88021187457696 35.83571187457699 252.99972385762504 34.455 252.99999999999997 M 98.408 252.87699999999998 C 97.18977193239975 252.87721267539987 96.14876025970065 251.9993092993486 95.94335602495464 250.79852256963002 C 95.73795179020861 249.59773583991142 96.42796725056552 248.42372634044114 97.577 248.01899999999998 C 111.538 243.09499999999997 120.919 229.85999999999999 120.919 215.08399999999997 C 120.919 195.82999999999998 105.25399999999999 180.16599999999997 86 180.16599999999997 C 66.74600000000001 180.16599999999997 51.082 195.83099999999996 51.082 215.08399999999997 C 51.082 229.759 60.378 242.96399999999997 74.213 247.94399999999996 C 75.51224987397694 248.41150904073172 76.18650904073176 249.84375012602302 75.719 251.14299999999997 C 75.25149095926824 252.44224987397692 73.81924987397694 253.11650904073173 72.52 252.64899999999997 C 56.706999999999994 246.95799999999997 46.081999999999994 231.86099999999996 46.081999999999994 215.08499999999998 C 46.081999999999994 193.07399999999998 63.98899999999999 175.16699999999997 86 175.16699999999997 C 108.012 175.16699999999997 125.919 193.07399999999998 125.919 215.08499999999998 C 125.919 231.97699999999998 115.197 247.10699999999997 99.239 252.73499999999999 C 98.97203556912851 252.8290334980041 98.69104116954648 252.87704938818538 98.408 252.87699999999998" stroke-linecap="round" />
</g>
		<g transform="matrix(1 0 0 1 0 80.35)"  >
<path style="stroke: none; stroke-width: 1; stroke-dasharray: none; stroke-linecap: butt; stroke-dashoffset: 0; stroke-linejoin: miter; stroke-miterlimit: 4; fill: rgb(0,0,0); fill-rule: nonzero; opacity: 1;" vector-effect="non-scaling-stroke"  transform=" translate(-86, -206.85)" d="M 48.38 252.466 C 47.709 252.466 47.04 252.197 46.547000000000004 251.667 C 37.268 241.668 32.158 228.676 32.158 215.084 C 32.158 185.39600000000002 56.311 161.24200000000002 86 161.24200000000002 C 115.689 161.24200000000002 139.84199999999998 185.395 139.84199999999998 215.084 C 139.84199999999998 228.645 134.75199999999998 241.615 125.50999999999999 251.60500000000002 C 124.5722204947873 252.61844251593953 122.9904425159395 252.6797795052127 121.977 251.74200000000002 C 120.96355748406049 250.80422049478733 120.9022204947873 249.22244251593955 121.83999999999999 248.20900000000003 C 130.225 239.14600000000004 134.84199999999998 227.38100000000003 134.84199999999998 215.08400000000003 C 134.84199999999998 188.15200000000004 112.93199999999999 166.24200000000002 85.99999999999999 166.24200000000002 C 59.067999999999984 166.24200000000002 37.15799999999999 188.15200000000002 37.15799999999999 215.084 C 37.15799999999999 227.41 41.79399999999999 239.19400000000002 50.21199999999999 248.265 C 50.88851113486113 248.99365234173072 51.06892518952849 250.05393454284726 50.671478717014296 250.96532790039757 C 50.2740322445001 251.87672125794785 49.37428444071303 252.4659592970343 48.37999999999999 252.46599999999998" stroke-linecap="round" />
</g>
		<g transform="matrix(1 0 0 1 0.01 98.41)"  >
<path style="stroke: none; stroke-width: 1; stroke-dasharray: none; stroke-linecap: butt; stroke-dashoffset: 0; stroke-linejoin: miter; stroke-miterlimit: 4; fill: rgb(0,0,0); fill-rule: nonzero; opacity: 1;" vector-effect="non-scaling-stroke"  transform=" translate(-86.01, -224.91)" d="M 99.021 211.21 C 97.74635597371413 211.20978272887808 96.67597030670274 210.25063444180145 96.53644807202579 208.98364944308057 C 96.39692583734883 207.71666444435968 97.23294739375419 206.54757981527118 98.477 206.27 C 105.416642211642 204.7227016120397 112.00408686985391 201.88623342295796 117.89699999999999 197.90800000000004 C 119.0406424586611 197.18561651417056 120.55138653380769 197.50344546838113 121.30701952704993 198.62539678344575 C 122.06265252029218 199.7473480985104 121.78929379394293 201.26676835355963 120.69000000000001 202.055 C 114.28060984535804 206.38101644916227 107.11627371284015 209.46574126281303 99.56900000000002 211.149 C 99.38914124474496 211.18947667208013 99.20535706799903 211.2099343997836 99.02100000000002 211.21 M 101.66200000000002 224.894 C 100.38476193108572 224.89359045025435 99.31321763673414 223.93048712937835 99.17704968145343 222.660528255883 C 99.04088172617273 221.39056938238764 99.88388282923084 220.22218403427576 101.13200000000002 219.951 C 108.37185906979215 218.3708481265646 115.31876478322884 215.66389336709557 121.71900000000005 211.929 C 122.91193505963453 211.23367349996303 124.44267349996305 211.6370649403655 125.13800000000002 212.82999999999998 C 125.83332650003699 214.0229350596345 125.42993505963453 215.55367349996303 124.23700000000002 216.249 C 117.38561334805165 220.24818610812963 109.94817648884825 223.145546946293 102.19700000000003 224.835 Q 101.92700000000004 224.895 101.66200000000003 224.894 M 72.97100000000003 211.208 Q 72.69900000000003 211.208 72.42300000000003 211.147 C 64.7754781320597 209.44022141463287 57.522298546218494 206.29467696223205 51.050000000000026 201.878 C 49.908703564474685 201.10065921461313 49.61365921461318 199.54529643552533 50.39100000000002 198.404 C 51.16834078538686 197.26270356447463 52.72370356447468 196.96765921461312 53.86500000000002 197.74499999999998 C 59.81522440502231 201.80644070714268 66.48376536797852 204.6988567187089 73.51499999999999 206.26799999999997 C 74.75905260624583 206.54557981527114 75.59507416265119 207.71466444435964 75.45555192797423 208.98164944308053 C 75.31602969329728 210.2486344418014 74.24564402628589 211.20778272887804 72.97100000000002 211.20799999999997 M 70.33800000000002 224.89399999999998 Q 70.07400000000003 224.89399999999998 69.80300000000003 224.83599999999998 C 62.07181843675861 223.1503323037969 54.65273031586251 220.2629380685439 47.81600000000002 216.279 C 47.03229951204389 215.83558694452788 46.54760110749378 215.0049826982148 46.547094320578594 214.10453762173717 C 46.54658753366341 213.20409254525953 47.03035067299558 212.3729432311226 47.81355154270025 211.92864829498262 C 48.596752412404925 211.4843533588426 49.558370971277405 211.49556516506547 50.33100000000003 211.958 C 56.71781388457043 215.67803956354751 63.64775114407226 218.3750396860131 70.86900000000004 219.95100000000002 C 72.11730368155469 220.2222248555594 72.96033874741603 221.3909038391923 72.82389640701086 222.66102528669285 C 72.68745406660568 223.9311467341934 71.61542905612785 224.89410107681152 70.33800000000002 224.894 M 92.962 252.5 C 91.58128812542301 252.5 90.462 251.38071187457697 90.462 250 L 90.462 232.906 C 90.462 231.52528812542303 91.58128812542301 230.406 92.962 230.406 C 94.34271187457699 230.406 95.462 231.52528812542303 95.462 232.906 L 95.462 250 C 95.462 251.38071187457697 94.34271187457699 252.5 92.962 252.5 M 79.039 252.5 C 77.65828812542301 252.5 76.539 251.38071187457697 76.539 250 L 76.539 232.937 C 76.539 231.55628812542304 77.65828812542301 230.437 79.039 230.437 C 80.41971187457699 230.437 81.539 231.55628812542304 81.539 232.937 L 81.539 250 C 81.539 251.38071187457697 80.41971187457699 252.5 79.039 252.5" stroke-linecap="round" />
</g>
		<g transform="matrix(1 0 0 1 0 91.77)"  >
<path style="stroke: none; stroke-width: 1; stroke-dasharray: none; stroke-linecap: butt; stroke-dashoffset: 0; stroke-linejoin: miter; stroke-miterlimit: 4; fill: rgb(0,0,0); fill-rule: nonzero; opacity: 1;" vector-effect="non-scaling-stroke"  transform=" translate(-86, -218.27)" d="M 86 236.439 C 75.984 236.439 67.836 228.291 67.836 218.27499999999998 C 67.836 208.25899999999996 75.984 200.111 86 200.111 C 96.016 200.111 104.164 208.259 104.164 218.27499999999998 C 104.164 228.29099999999997 96.016 236.439 86 236.439 M 86 205.112 C 78.742 205.112 72.836 211.017 72.836 218.27599999999998 C 72.836 225.53499999999997 78.741 231.44 86 231.44 C 93.259 231.44 99.164 225.535 99.164 218.276 C 99.164 211.01700000000002 93.259 205.112 86 205.112" stroke-linecap="round" />
</g>
		<g transform="matrix(1 0 0 1 0.07 70.03)"  >
<path style="stroke: none; stroke-width: 1; stroke-dasharray: none; stroke-linecap: butt; stroke-dashoffset: 0; stroke-linejoin: miter; stroke-miterlimit: 4; fill: rgb(0,0,0); fill-rule: nonzero; opacity: 1;" vector-effect="non-scaling-stroke"  transform=" translate(-86.07, -196.53)" d="M 89.48 221.355 L 82.519 221.355 C 81.13828812542302 221.355 80.019 220.23571187457696 80.019 218.855 C 80.019 217.47428812542302 81.13828812542302 216.355 82.519 216.355 L 89.48 216.355 C 90.86071187457699 216.355 91.98 217.47428812542302 91.98 218.855 C 91.98 220.23571187457696 90.86071187457699 221.355 89.48 221.355 M 108.87700000000001 187.059 C 107.91512129073801 187.05824979220543 107.03897789968539 186.50571965053888 106.62381139288158 185.63805151941295 C 106.20864488607778 184.770383388287 106.32809394910036 183.74147682281165 106.93100000000001 182.992 C 109.239 180.123 111.51200000000001 176.748 113.68800000000002 172.962 C 114.01835590279786 172.3868995765744 114.56369612281009 171.96663841507007 115.203988350634 171.79371825278136 C 115.84428057845793 171.62079809049266 116.5270444598678 171.70939200492282 117.10200000000002 172.04 C 118.29901341703129 172.7279198009738 118.71179080681388 174.25591245968099 118.02400000000002 175.453 C 115.71800000000002 179.465 113.29600000000002 183.055 110.82800000000002 186.126 C 110.3527837054263 186.71674639965983 109.63516289864815 187.0599243662021 108.87700000000002 187.059 M 62.99700000000002 186.902 C 62.23642482005945 186.90268065709822 61.51690302795911 186.5570893717876 61.04200000000002 185.963 C 58.66400000000002 182.986 56.334000000000024 179.531 54.11500000000002 175.692 C 53.4240917779617 174.49630351661634 53.83330351661635 172.96690822203834 55.02900000000002 172.276 C 56.22469648338368 171.58509177796168 57.7540917779617 171.99430351661633 58.44500000000002 173.19 C 60.53900000000002 176.813 62.72700000000002 180.06 64.94900000000003 182.841 C 65.54886418891854 183.5914111368926 65.66565490615722 184.6191829467476 65.24945675806558 185.48505419644027 C 64.83325860997394 186.35092544613298 63.9577048630145 186.90170725497472 62.99700000000003 186.90200000000002" stroke-linecap="round" />
</g>
</g>
</g>
</svg>